{"title":"Holy Smoke [Jane Campion, 1999] H264-AAC","uid":14141842,"size":1564029130,"categoryP":"video","categoryS":"movies","magnet":"?xt=urn:btih:c7e8f65364c35d96b52fa25c1ddfbea685a62539&amp;dn=Holy+Smoke+%5BJane+Campion%2C+1999%5D+H264-AAC&amp;tr=udp%3A%2F%2Ftracker.leechers-paradise.org%3A6969&amp;tr=udp%3A%2F%2Fzer0day.ch%3A1337&amp;tr=udp%3A%2F%2Fopen.demonii.com%3A1337&amp;tr=udp%3A%2F%2Ftracker.coppersurfer.tk%3A6969&amp;tr=udp%3A%2F%2Fexodus.desync.com%3A6969","seeders":11,"leechers":2,"uploader":null,"files":1,"time":1459618810,"description":"While on a journey of discovery in exotic India, beautiful young Ruth Barron falls under the influence of a charismatic religious guru. Her desperate parents then hire PJ Waters, a macho cult de-programmer who confronts Ruth in a remote desert hideaway. But PJ quickly learns that he's met his match in the sexy, intelligent and iron-willed Ruth!\r\n\r\nGeneral\r\nComplete name                            : Holy.Smoke.(1999).[Uncut].[H264.AVC-aac].[ThCr].mp4\r\nFormat                                   : MPEG-4\r\nFormat profile                           : Base Media\r\nCodec ID                                 : isom\r\nFile size                                : 1.46 GiB\r\nDuration                                 : 1h 54mn\r\nOverall bit rate mode                    : Variable\r\nOverall bit rate                         : 1 825 Kbps\r\nWriting application                      : Lavf51.12.1\r\n\r\nVideo\r\nID                                       : 1\r\nFormat                                   : AVC\r\nFormat/Info                              : Advanced Video Codec\r\nFormat profile                           :   \r\nFormat settings, CABAC                   : No\r\nFormat settings, ReFrames                : 1 frame\r\nFormat settings, GOP                     : M=1, N=12\r\nCodec ID                                 : avc1\r\nCodec ID/Info                            : Advanced Video Coding\r\nDuration                                 : 1h 54mn\r\nBit rate                                 : 1 655 Kbps\r\nWidth                                    : 720 pixels\r\nHeight                                   : 404 pixels\r\nDisplay aspect ratio                     : 16:9\r\nFrame rate mode                          : Constant\r\nFrame rate                               : 23.976 fps\r\nColor space                              : YUV\r\nChroma subsampling                       : 4:2:0\r\nBit depth                                : 8 bits\r\nScan type                                : Progressive\r\nBits/(Pixel*Frame)                       : 0.237\r\nStream size                              : 1.32 GiB (91%)\r\nLanguage                                 : English\r\n\r\nAudio\r\nID                                       : 2\r\nFormat                                   : AAC\r\nFormat/Info                              : Advanced Audio Codec\r\nFormat profile                           : LC\r\nCodec ID                                 : 40\r\nDuration                                 : 1h 54mn\r\nBit rate mode                            : Variable\r\nBit rate                                 : 165 Kbps\r\nChannel(s)                               : 2 channels\r\nChannel positions                        : Front: L R\r\nSampling rate                            : 48.0 KHz\r\nCompression mode                         : Lossy\r\nStream size                              : 135 MiB (9%)\r\nLanguage                                 : English","torrent":{"xt":"urn:btih:c7e8f65364c35d96b52fa25c1ddfbea685a62539","amp;dn":"Holy+Smoke+%5BJane+Campion%2C+1999%5D+H264-AAC","amp;tr":["udp%3A%2F%2Ftracker.leechers-paradise.org%3A6969","udp%3A%2F%2Fzer0day.ch%3A1337","udp%3A%2F%2Fopen.demonii.com%3A1337","udp%3A%2F%2Ftracker.coppersurfer.tk%3A6969","udp%3A%2F%2Fexodus.desync.com%3A6969"],"infoHash":"c7e8f65364c35d96b52fa25c1ddfbea685a62539","infoHashBuffer":{"type":"Buffer","data":[199,232,246,83,100,195,93,150,181,47,162,92,29,223,190,166,133,166,37,57]},"announce":[],"urlList":[]}}